<?xml version="1.0" encoding="utf-8"?>
<!-- Generator: Adobe Illustrator 19.0.0, SVG Export Plug-In . SVG Version: 6.00 Build 0)  -->
<svg version="1.1" id="Black_1C" xmlns="http://www.w3.org/2000/svg" xmlns:xlink="http://www.w3.org/1999/xlink" x="0px" y="0px"
	 viewBox="-203 78 25 25" style="enable-background:new -203 78 25 25;" xml:space="preserve">
<style type="text/css">
	.st0{fill:#0099FF;}
</style>
<path class="st0" d="M-178.5,80.7c-0.2-0.6-0.5-1.2-1.1-1.5l-0.4-0.3c-0.4-0.2-0.8-0.4-1.3-0.4c-0.9,0-1.6,0.4-2.1,1.2l-9.4,15.9
	l-5.4-4.7l-0.1-0.1c-1.1-0.8-2.7-0.5-3.5,0.6l-0.3,0.4c-0.8,1.1-0.5,2.6,0.5,3.4l7.3,6.3c0.1,0.1,0.2,0.2,0.4,0.4l0.4,0.3
	c0.2,0.1,0.4,0.2,0.6,0.2l0.2,0.1c0.2,0,0.3,0.1,0.5,0.1c0.9,0,1.6-0.4,2.1-1.2l0.2-0.3c0.1-0.1,0.1-0.2,0.2-0.3l10.9-18.2
	C-178.5,82-178.4,81.3-178.5,80.7z"/>
</svg>
