<?xml version="1.0" encoding="utf-8"?>
<!-- Generator: Adobe Illustrator 19.0.0, SVG Export Plug-In . SVG Version: 6.00 Build 0)  -->
<svg version="1.1" id="Black_1C" xmlns="http://www.w3.org/2000/svg" xmlns:xlink="http://www.w3.org/1999/xlink" x="0px" y="0px"
	 viewBox="-203 78 25 25" style="enable-background:new -203 78 25 25;" xml:space="preserve">
<style type="text/css">
	.st0{fill:#0066CC;}
</style>
<g>
	<path class="st0" d="M-183.8,95.4c0.3-0.9,0.5-1.9,0.6-2.9c0.1-0.4,0.1-0.9,0.1-1.3h-1.2h-5.4l0,0v3.5c2,0.2,3.9,0.9,5.6,1.8
		C-184.1,96.1-184,95.7-183.8,95.4z"/>
	<path class="st0" d="M-197.1,85.6c-0.5,1.4-0.7,2.8-0.8,4.2h0.1h1.3h5.3v-2.3v-1.1c-2-0.1-3.8-0.6-5.6-1.6
		C-196.9,85.1-197.1,85.3-197.1,85.6z"/>
	<path class="st0" d="M-198.3,96.2c-0.5-1.6-0.9-3.3-0.9-5h-2.8l0,0h-0.5h-0.5c0.1,2.8,1.2,5.3,2.8,7.3c0.1-0.1,0.3-0.2,0.4-0.3
		c0.1-0.1,0.3-0.2,0.4-0.3c0.4-0.4,0.9-0.7,1.3-1C-198.1,96.6-198.2,96.4-198.3,96.2z"/>
	<path class="st0" d="M-197.7,91.2h-0.2c0.1,1.7,0.4,3.4,1,4.9l0,0c1.8-1,3.7-1.5,5.7-1.5l0,0v-1.1v-2.3h-5.3H-197.7z"/>
	<path class="st0" d="M-182.7,84.8c0.5,1.6,0.9,3.3,0.9,5h2.8l0,0h0.5h0.5c-0.2-2.8-1.2-5.3-2.9-7.3c-0.1,0.1-0.3,0.2-0.4,0.3
		c-0.1,0.1-0.3,0.2-0.4,0.3c-0.4,0.3-0.9,0.6-1.3,0.9C-182.9,84.3-182.8,84.5-182.7,84.8z"/>
	<path class="st0" d="M-194.7,96.6c-0.4,0.1-0.8,0.3-1.2,0.5c-0.2,0.1-0.3,0.2-0.5,0.3c0.7,1.5,1.7,3,2.8,4.2l0,0
		c0.2,0.2,0.4,0.4,0.6,0.6c0.2,0.2,0.4,0.4,0.7,0.6c0.3,0,0.7,0.1,1,0.1v-0.5V102v-1.2V96l0,0C-192.4,96-193.6,96.2-194.7,96.6z"/>
	<path class="st0" d="M-184.8,97.7c-0.6-0.3-1.2-0.6-1.8-0.9c-1-0.4-2.1-0.7-3.2-0.8l0,0v6v0.5v0.5c0.3,0,0.7,0,1-0.1
		c0.2-0.2,0.5-0.4,0.7-0.6c0.2-0.2,0.4-0.4,0.6-0.6l0,0C-186.4,100.4-185.5,99.1-184.8,97.7L-184.8,97.7z"/>
	<path class="st0" d="M-184.4,89.8h1.2c0-0.3,0-0.6,0-0.9c-0.1-1.2-0.3-2.3-0.7-3.4c-0.1-0.2-0.2-0.5-0.3-0.8
		c-1.7,0.9-3.6,1.5-5.6,1.7v3.4l0,0C-189.8,89.8-184.4,89.8-184.4,89.8z"/>
	<path class="st0" d="M-186.3,84.1c0.4-0.2,0.8-0.3,1.1-0.5c0.1-0.1,0.3-0.1,0.4-0.2c-0.7-1.5-1.6-2.8-2.7-4l0,0
		c-0.2-0.2-0.4-0.4-0.6-0.6c-0.2-0.2-0.4-0.4-0.7-0.6c-0.3,0-0.7-0.1-1-0.1v0.5V79v6l0,0C-188.6,84.9-187.4,84.6-186.3,84.1z"/>
	<path class="st0" d="M-192.8,78.7c-0.3,0.2-0.5,0.4-0.7,0.7l0,0c-1.1,1.2-2.1,2.6-2.8,4.1c0.1,0.1,0.3,0.2,0.4,0.3
		c0.4,0.2,0.8,0.3,1.2,0.5c1.1,0.4,2.3,0.7,3.5,0.7v-4.7V79v-0.5V78c-0.3,0-0.7,0-1,0.1C-192.4,78.3-192.6,78.5-192.8,78.7z"/>
	<path class="st0" d="M-202,89.8L-202,89.8h2.8c0.1-1.7,0.4-3.4,0.9-5c0.1-0.2,0.2-0.5,0.3-0.7c-0.4-0.3-0.8-0.6-1.3-1
		c-0.1-0.1-0.2-0.2-0.4-0.3c-0.1-0.1-0.2-0.2-0.3-0.4c-1.7,2.1-2.8,4.6-3,7.4h0.5H-202z"/>
	<path class="st0" d="M-196.1,100.6C-196.1,100.6-196.1,100.5-196.1,100.6c-0.6-0.8-1-1.6-1.4-2.5c-0.3,0.2-0.6,0.4-0.9,0.7l0,0
		c-0.1,0.1-0.2,0.2-0.4,0.3c-0.1,0.1-0.3,0.2-0.4,0.3c1.3,1.2,2.8,2.2,4.4,2.8c-0.2-0.2-0.4-0.5-0.6-0.8
		C-195.7,101.1-195.9,100.9-196.1,100.6z"/>
	<path class="st0" d="M-198.4,82.1C-198.4,82.1-198.3,82.1-198.4,82.1c0.4,0.3,0.6,0.5,0.9,0.7c0.4-0.8,0.9-1.6,1.4-2.3l0,0
		c0.2-0.3,0.4-0.6,0.6-0.9c0.3-0.3,0.5-0.6,0.7-0.8c-1.6,0.6-3.1,1.5-4.3,2.7c0.1,0.1,0.2,0.2,0.4,0.3
		C-198.6,81.9-198.5,82-198.4,82.1z"/>
	<path class="st0" d="M-182.7,99L-182.7,99c-0.3-0.2-0.6-0.4-0.9-0.6c-0.4,0.7-0.8,1.5-1.3,2.2l0,0c-0.2,0.3-0.4,0.6-0.6,0.9
		s-0.5,0.5-0.7,0.8c1.6-0.6,3.1-1.5,4.3-2.6c-0.1-0.1-0.3-0.2-0.4-0.3C-182.5,99.2-182.6,99.1-182.7,99z"/>
	<path class="st0" d="M-184.9,80.4C-184.9,80.4-184.9,80.5-184.9,80.4c0.5,0.8,1,1.5,1.3,2.3c0.3-0.2,0.6-0.4,0.9-0.6l0,0
		c0.1-0.1,0.3-0.2,0.4-0.3c0.1-0.1,0.3-0.2,0.4-0.3c-1.2-1.2-2.7-2.1-4.4-2.7c0.3,0.2,0.5,0.5,0.7,0.8
		C-185.3,79.9-185.1,80.1-184.9,80.4z"/>
	<path class="st0" d="M-179,91.2L-179,91.2h-2.8c-0.1,1.7-0.4,3.4-0.9,4.9c-0.1,0.3-0.2,0.7-0.4,1c0.4,0.3,0.8,0.6,1.3,0.9
		c0.1,0.1,0.3,0.2,0.4,0.3c0.1,0.1,0.3,0.2,0.4,0.3c1.7-2,2.8-4.6,3-7.4h-0.5C-178.5,91.2-179,91.2-179,91.2z"/>
</g>
</svg>
