<?xml version="1.0" encoding="utf-8"?>
<!-- Generator: Adobe Illustrator 20.0.0, SVG Export Plug-In . SVG Version: 6.00 Build 0)  -->
<svg version="1.1" id="Black_1C" xmlns="http://www.w3.org/2000/svg" xmlns:xlink="http://www.w3.org/1999/xlink" x="0px" y="0px"
	 viewBox="0 0 25 25" style="enable-background:new 0 0 25 25;" xml:space="preserve">
<g>
	<path d="M18.8,9.7C18.8,9.7,18.8,9.7,18.8,9.7C18.8,9.7,18.8,9.7,18.8,9.7L16,12.6c-0.4,0.4-0.9,0.6-1.5,0.6c-0.2,0-0.4,0-0.6-0.1
		c0.2,0.5,0.2,0.9-0.2,1.4l-0.4,0.4c-0.1,0.1-0.3,0.3-0.6,0.5h3.8c0.4,0,0.7,0.2,0.7,0.5v0.3c0,0.3-0.3,0.5-0.7,0.5H4.1
		c-0.4,0-0.7-0.2-0.7-0.5v-0.3c0-0.3,0.3-0.5,0.7-0.5h4.6c-0.1-1.3,1.4-3.3,1.7-3.6l0.2-0.2c0,0,0,0,0,0c0.3-0.4,0.8-0.5,1.3-0.5
		c-0.1-0.6,0.1-1.3,0.6-1.8c0,0,6.2-6.2,6.2-6.3c0.5-0.5,1-1,0.6-1.7c-0.3-0.6-1.1-0.6-1.7-0.6H2.9c-1.3,0-2.3,1-2.3,2.3v19.3
		c0,1.3,1,2.3,2.3,2.3h14.8c1.3,0,2.3-1,2.3-2.3V10.3c0-0.1,0-0.1,0-0.2c0-0.1-0.1-0.3-0.2-0.4C19.5,9.4,19.1,9.4,18.8,9.7z M9,12.8
		c0,0.3-0.1,0.5-0.3,0.5h-5c-0.2,0-0.3-0.2-0.3-0.5v-0.3c0-0.3,0.1-0.5,0.3-0.5h5C8.9,12,9,12.3,9,12.6V12.8z M3.5,5.9
		c0-0.3,0.2-0.5,0.5-0.5h9.6c0.3,0,0.5,0.2,0.5,0.5v0.3c0,0.3-0.2,0.5-0.5,0.5H4c-0.3,0-0.5-0.2-0.5-0.5V5.9z M3.4,9.3
		c0-0.3,0.2-0.5,0.4-0.5H11c0.2,0,0.4,0.2,0.4,0.5v0.3c0,0.3-0.2,0.5-0.4,0.5H3.8c-0.2,0-0.4-0.2-0.4-0.5V9.3z M17.1,19.4
		c0,0.3-0.3,0.5-0.7,0.5H4.2c-0.4,0-0.7-0.2-0.7-0.5v-0.3c0-0.3,0.3-0.5,0.7-0.5h12.3c0.4,0,0.7,0.2,0.7,0.5V19.4z"/>
	<g>
		<path d="M21.4,4.1c0.5,0.5,0.5,1.3,0,1.7l-6,6c-0.5,0.5-1.3,0.5-1.8,0l-0.4-0.4c-0.5-0.5-0.5-1.3,0-1.7l6-6c0.5-0.5,1.3-0.5,1.7,0
			L21.4,4.1z"/>
		<path d="M24,3.4l-0.1,0.1c-0.5,0.5-1.4,0.5-1.9,0l-0.5-0.5c-0.5-0.5-0.5-1.4,0-1.9L21.7,1c0.5-0.5,1.4-0.5,1.9,0L24,1.5
			C24.6,2,24.6,2.9,24,3.4z"/>
		<path d="M12.6,12.1l0.4,0.4c0.4,0.4,0.4,1.1,0,1.5l-0.3,0.4c-0.2,0.2-1.1,0.7-1.8,1c-0.5,0.2-0.9,0.3-1.1,0.1l-0.1-0.1
			c0,0,0,0,0,0c-0.3-0.5,0.9-2.6,1.3-3l0.2-0.2C11.6,11.7,12.2,11.7,12.6,12.1z"/>
	</g>
</g>
</svg>
